<?xml version="1.0" encoding="UTF-8"?>
<!DOCTYPE svg PUBLIC "-//W3C//DTD SVG 1.1//EN" "http://www.w3.org/Graphics/SVG/1.1/DTD/svg11.dtd">
<!-- Creator: CorelDRAW (Versión de evaluación) -->
<svg xmlns="http://www.w3.org/2000/svg" xml:space="preserve" width="215.9mm" height="279.4mm" version="1.1" style="shape-rendering:geometricPrecision; text-rendering:geometricPrecision; image-rendering:optimizeQuality; fill-rule:evenodd; clip-rule:evenodd"
viewBox="0 0 21590 27940"
 xmlns:xlink="http://www.w3.org/1999/xlink"
 xmlns:xodm="http://www.corel.com/coreldraw/odm/2003">
 <defs>
  <style type="text/css">
   <![CDATA[
    .fil2 {fill:#633001}
    .fil1 {fill:#A28BD4;fill-rule:nonzero}
    .fil0 {fill:#DBCDF9;fill-rule:nonzero}
   ]]>
  </style>
   <clipPath id="id0">
    <rect x="10345.25" y="13672.78" width="812.43" height="812.43"/>
   </clipPath>
 </defs>
 <g id="Capa_x0020_1">
  <metadata id="CorelCorpID_0Corel-Layer"/>
  <path class="fil0" d="M11563.09 13729.81c9.29,9.27 14.52,21.89 14.52,35.02 0,10.16 -3.14,20.09 -8.96,28.4 -251.66,359.9 -564.31,674.91 -921.75,930.03l-28.26 20.16c-8.8,6.18 -19.38,9.57 -30.22,9.57 -13.81,0 -27.08,-5.5 -36.85,-15.26l-127.26 -127.26c35.92,-37.05 56.05,-86.71 56.05,-138.33 0,-109.72 -88.98,-198.7 -198.7,-198.7 -51.65,0 -101.28,20.11 -138.35,56.06l-117.05 -117.05c-22.23,-22.23 -19.18,-59.19 6.43,-77.44l28.31 -20.16c348.72,-248.79 653.81,-556.18 899.53,-907.29 8.95,-13.05 23.73,-20.73 39.49,-20.73 12.8,0 25.09,5.07 34.16,14.1l119.12 119.12c-35.68,37.03 -55.67,86.51 -55.67,137.94 0,109.72 88.98,198.7 198.7,198.7 51.43,0 100.91,-19.99 137.93,-55.67l128.8 128.8 0.03 -0.01z"/>
  <path class="fil1" d="M11619.44 13765l-454.9 576 -588.35 445.4 -113.16 -113.98 -40.83 -49.48 40.83 -59.08 14.29 -59.08 -7.88 -62.97 -23.63 -59.08 -39.37 -47.25 -47.25 -31.49 -51.2 -15.74 -62.98 -0.01 -66.94 23.63 -39.37 35.45 -94.51 -114.19 153.72 -22.94c476.41,-71.21 927.85,-263.79 1308.57,-559.03l113.16 113.98 -0.2 -0.14z"/>
  <g id="_3126157743456">
   <path class="fil2" d="M10366.85 14616.01c0.02,-16.74 6.71,-32.8 18.56,-44.6l0.21 -0.21c24.1,-25.24 37.57,-58.83 37.57,-93.74 0,-74.95 -60.78,-135.73 -135.73,-135.73 -34.91,0 -68.5,13.47 -93.74,37.58l-0.21 0.21c-11.82,11.87 -27.89,18.56 -44.65,18.56 -16.71,0 -32.73,-6.64 -44.54,-18.46l-122.65 -122.6c-21.3,-21.36 -33.29,-50.36 -33.29,-80.54 0,-36.81 17.79,-71.37 47.73,-92.77l28.31 -20.16 36.59 51.33 -28.31 20.16c-25.66,18.26 -28.71,55.19 -6.43,77.44l122.58 122.58 0.26 -0.26c77.92,-77.6 203.52,-77.52 280.99,0 37.24,37.23 58.2,87.81 58.2,140.5 0,52.54 -20.81,102.95 -57.88,140.19l-0.61 0.61 121.66 121.66c9.76,9.75 23.03,15.25 36.84,15.25 10.84,0 21.42,-3.39 30.25,-9.68l28.26 -20.16c357.41,-255 670.06,-570.01 921.88,-929.81 5.66,-8.42 8.8,-18.35 8.8,-28.51 0,-13.13 -5.23,-25.75 -14.52,-35.02l-127.79 -127.79 -2.8 2.8c-37.18,36.65 -87.32,57.25 -139.55,57.25 -109.72,0 -198.7,-88.98 -198.7,-198.7 0,-52.23 20.57,-102.39 57.25,-139.56l2.8 -2.8 -120.07 -120.12c-9.06,-9.04 -21.35,-14.11 -34.15,-14.11 -15.76,0 -30.54,7.68 -39.61,20.57 -245.63,351.31 -550.72,658.7 -899.53,907.64l-36.59 -51.33c343.2,-244.93 642.74,-547.19 884.35,-892.43 21.04,-29.72 55.11,-47.45 91.43,-47.45 29.51,0 57.84,11.74 78.71,32.58l120.12 120.12c11.83,11.82 18.47,27.84 18.47,44.55 0,16.93 -6.82,33.15 -18.91,44.99l-0.98 0.98c-24.1,25.24 -37.57,58.83 -37.57,93.74 0,74.95 60.78,135.73 135.73,135.73 34.91,0 68.5,-13.47 93.74,-37.58l0.98 -0.98c11.84,-12.08 28.06,-18.9 44.99,-18.9 16.71,0 32.73,6.64 44.54,18.46l127.79 127.79c38.63,38.63 43.92,99.38 12.62,144.09 -255.74,365.77 -573.49,685.92 -936.76,945.2l-28.26 20.16c-19.47,13.79 -42.86,21.28 -66.82,21.28 -30.53,0 -59.81,-12.14 -81.4,-33.72l-121.66 -121.66c-11.8,-11.79 -18.44,-27.82 -18.44,-44.52 0,-0.02 0,-0.06 0,-0.08l-0.06 -0.02z"/>
   <g>
    <path class="fil2" d="M10794.74 13421.07l27.83 27.83c5.91,5.9 9.23,13.92 9.23,22.28 0,17.4 -14.11,31.51 -31.51,31.51 -8.35,0 -16.37,-3.32 -22.27,-9.23l-27.83 -27.83c-5.91,-5.9 -9.23,-13.92 -9.23,-22.28 0,-17.4 14.11,-31.51 31.51,-31.51 8.36,0 16.38,3.32 22.28,9.23l-0.01 0z"/>
   </g>
   <g>
    <path class="fil2" d="M10911.68 13538.04l27.83 27.83c5.91,5.91 9.23,13.93 9.23,22.29 0,17.4 -14.11,31.51 -31.51,31.51 -8.35,0 -16.37,-3.32 -22.27,-9.23l-27.83 -27.83c-5.91,-5.9 -9.23,-13.92 -9.23,-22.28 0,-17.4 14.11,-31.51 31.51,-31.51 8.36,0 16.38,3.32 22.28,9.23l-0.01 -0.01z"/>
   </g>
   <g>
    <path class="fil2" d="M11056.51 13727.38c-5.89,5.91 -13.91,9.24 -22.27,9.24 -8.36,0 -16.38,-3.33 -22.28,-9.24l-33.42 -33.42c-5.91,-5.9 -9.23,-13.92 -9.23,-22.28 0,-17.4 14.11,-31.51 31.51,-31.51 8.36,0 16.38,3.32 22.28,9.23l33.42 33.42c5.9,5.9 9.23,13.92 9.23,22.28 0,8.36 -3.33,16.38 -9.24,22.28z"/>
   </g>
   <g>
    <path class="fil2" d="M11173.46 13844.32c-5.9,5.92 -13.92,9.25 -22.28,9.25 -8.36,0 -16.38,-3.33 -22.28,-9.24l-33.42 -33.42c-5.91,-5.9 -9.23,-13.92 -9.23,-22.28 0,-17.4 14.11,-31.51 31.51,-31.51 8.36,0 16.38,3.32 22.28,9.23l33.42 33.42c5.9,5.9 9.23,13.92 9.23,22.28 0,8.36 -3.33,16.38 -9.24,22.28l0.01 -0.01z"/>
   </g>
   <path class="fil2" d="M11256.96 13883.32l27.83 27.83c5.92,5.9 9.24,13.92 9.24,22.28 0,17.4 -14.11,31.51 -31.51,31.51 -8.36,0 -16.38,-3.32 -22.28,-9.23l-27.83 -27.86c-5.92,-5.9 -9.24,-13.92 -9.24,-22.28 0,-17.4 14.11,-31.51 31.51,-31.51 8.36,0 16.38,3.32 22.28,9.23l0 0.03z"/>
   <g>
    <path class="fil2" d="M11373.91 14000.27l27.83 27.83c5.91,5.89 9.23,13.91 9.23,22.27 0,17.4 -14.11,31.51 -31.51,31.51 -8.35,0 -16.37,-3.32 -22.27,-9.23l-27.83 -27.83c-5.91,-5.9 -9.23,-13.92 -9.23,-22.28 0,-17.4 14.11,-31.51 31.51,-31.51 8.36,0 16.38,3.32 22.28,9.23l-0.01 0.01z"/>
   </g>
   <path class="fil2" d="M10631.83 13909.23c-33.87,-33.87 -33.87,-88.71 0,-122.56 38.36,-38.36 102.13,-32.44 132.77,12.28l77.21 112.66c67.39,-21.62 138.91,-18.79 186.27,28.63 42.33,42.33 49.05,105.36 34.61,165.18 -14.61,60.48 -51.51,124.22 -105.83,178.51 -54.32,54.29 -118,91.2 -178.51,105.83 -59.8,14.45 -122.58,7.94 -165.18,-34.61 -47.1,-47.1 -50.22,-118.08 -29.02,-185.08l-113.14 -77.52c-44.71,-30.69 -50.64,-94.4 -12.28,-132.77 33.87,-33.87 88.71,-33.87 122.56,0l78.4 78.4 24.69 -26.46 25.8 -23.89 -78.32 -78.32 -0.03 -0.28z"/>
  </g>
  <g id="_3126157742928">
   <ellipse class="fil0" transform="matrix(0.707107 -0.707106 0.707107 0.707106 10729.4 14193.7)" rx="37.89" ry="55.11"/>
   <ellipse class="fil0" transform="matrix(0.707108 -0.707106 0.707108 0.707106 10870.7 14052.4)" rx="37.89" ry="55.11"/>
  </g>
  <g style="clip-path:url(#id0)">
   <image x="10345.25" y="13672.79" width="812.42" height="812.42" xlink:href="ticket_Images\ticket_ImgID1.png"/>
  </g>
 </g>
</svg>
